<svg xmlns="http://www.w3.org/2000/svg" viewBox="0 0 64 64" fill="none">
  <rect width="64" height="64" rx="16" fill="#8B3A52"/>
  <!-- Basket body -->
  <path d="M14 34 C14 28 18 26 32 26 C46 26 50 28 50 34 L47 50 H17 L14 34Z" fill="#fff" opacity="0.95"/>
  <!-- Basket weave lines -->
  <path d="M16 38 Q32 36 48 38" stroke="#8B3A52" stroke-width="1.5" opacity="0.35" fill="none"/>
  <path d="M17 43 Q32 41 47 43" stroke="#8B3A52" stroke-width="1.5" opacity="0.35" fill="none"/>
  <!-- Handle -->
  <path d="M22 26 Q22 14 32 14 Q42 14 42 26" stroke="#fff" stroke-width="3.5" stroke-linecap="round" fill="none"/>
  <!-- Heart / ribbon -->
  <path d="M32 21 C32 21 28 17.5 28 15.5 C28 13.8 30 13 32 15 C34 13 36 13.8 36 15.5 C36 17.5 32 21 32 21Z" fill="#F4A7B9"/>
</svg>
